<svg xmlns="http://www.w3.org/2000/svg" viewBox="0 0 100 60"><g fill="none" fill-rule="evenodd"><path fill="#FFF" d="M0 0h100v60H0z"/><g fill-rule="nonzero"><path fill="#22346C" d="M41.834 31.599v4.771c.046.824-.53 1.548-1.327 1.67h-4.844a3.239 3.239 0 0 1-2.57-.908 3.398 3.398 0 0 1-1.019-2.579 27.518 27.518 0 0 1 .108-3.817c.227-1.558 1.494-2.739 3.032-2.826h2.135a.55.55 0 0 0 .514-.2.58.58 0 0 0 .096-.553.618.618 0 0 0-.052-.464.594.594 0 0 0-.36-.288h-3.194c-.682 0-.825-.147-.825-.863v-2.037a.56.56 0 0 1 .091-.418.537.537 0 0 1 .357-.224h4.288a3.319 3.319 0 0 1 2.592 1.114c.662.742.974 1.743.853 2.74.143 1.67.125 3.285.125 4.882zm-5.956 2.459a.62.62 0 0 0 .556.66h1.095a.584.584 0 0 0 .467-.168.613.613 0 0 0 .178-.474v-2.074c0-.55-.287-.66-1.291-.66-1.005 0-.951.183-1.005.679v2.037zm17.188-5.01v5.157a3.725 3.725 0 0 1-.858 2.678 3.56 3.56 0 0 1-2.462 1.267h-4.395c-.61 0-.754-.128-.754-.77v-2.313a.56.56 0 0 1 .117-.443.534.534 0 0 1 .404-.2h3.588a.566.566 0 0 0 .467-.155.595.595 0 0 0 .179-.468.614.614 0 0 0-.148-.44.587.587 0 0 0-.408-.202H47c-1.909.062-3.51-1.462-3.588-3.414V23.67a.586.586 0 0 1 .467-.679h2.404c.61 0 .753.184.753.826v4.772c0 .826.18.99.987.99h.09c1.112 0 1.202-.09 1.202-1.21V23.67a.673.673 0 0 1 .095-.743.636.636 0 0 1 .712-.174h2.171c.21-.04.425.028.575.182a.67.67 0 0 1 .179.589c.018 1.982.018 3.707.018 5.524zm-28.455 4.68v3.56c0 .844-.108.936-.933.936H21.56a.53.53 0 0 1-.502-.147.559.559 0 0 1-.144-.514V23.67a.513.513 0 0 1 .395-.587h6.225c1.583.038 2.86 1.336 2.907 2.955a33.076 33.076 0 0 1 0 4.57c0 1.756-1.387 3.183-3.104 3.193H24.61v-.074zm0-3.818h1.543a.58.58 0 0 0 .574-.569v-2a.584.584 0 0 0-.502-.642h-1.58v3.193l-.035.018z"/><path fill="#24B8EB" d="M68.334 23.67a3.88 3.88 0 0 1 5.13.184c.66-.372 1.351-.685 2.064-.936a3.667 3.667 0 0 1 3.159.706 3.849 3.849 0 0 1 1.434 2.964v10.7c0 .66-.162.826-.807.826H77.25a.619.619 0 0 1-.586-.172.652.652 0 0 1-.167-.6v-9.616a1.114 1.114 0 0 0-.391-.988 1.057 1.057 0 0 0-1.027-.186c-.523.058-.91.526-.879 1.064v9.91a.568.568 0 0 1-.448.661h-2.566a.53.53 0 0 1-.447-.13.557.557 0 0 1-.18-.439v-9.965a.885.885 0 0 0-.521-1.01 2.422 2.422 0 0 0-1.274 0 .887.887 0 0 0-.466.973v9.562c0 .88-.108 1.01-1.005 1.01h-1.794c-.646 0-.754-.148-.754-.808V23.67c0-.77.108-.862.826-.862h1.955a.744.744 0 0 1 .604.235.782.782 0 0 1 .204.627zm-9.743 3.01H57.21a.583.583 0 0 1-.576-.149.615.615 0 0 1-.16-.585V23.67a.568.568 0 0 1 .449-.66h.18a3.574 3.574 0 0 0 3.121-1.835 3.628 3.628 0 0 1 1.04-1.047c.431-.293.754 0 .79.496v2.33h1.256c.21-.04.425.029.575.183a.67.67 0 0 1 .179.589v2.238a.652.652 0 0 1-.168.6.619.619 0 0 1-.586.171h-1.184v10.7c0 .77-.126.88-.843.899h-1.956a.6.6 0 0 1-.598-.16.634.634 0 0 1-.155-.61c.017-3.433.017-10.608.017-10.865v-.019z"/></g></g></svg>