<svg xmlns="http://www.w3.org/2000/svg" viewBox="0 0 100 60"><g fill="none" fill-rule="evenodd"><path fill="#FFF" d="M0 0h100v60H0z"/><g fill-rule="nonzero"><path fill="#26BCBC" d="M69.839 24.617a5.945 5.945 0 0 0-1.764.175c-.441.087-.865.296-1.323.4-.38.064-.762.105-1.147.122.124-1.742.212-3.484.353-5.227a1.726 1.726 0 0 0-.335-1.324 1.769 1.769 0 0 0-1.2-.68 13.164 13.164 0 0 0-1.887 0v-.713a1.298 1.298 0 0 0-.443-1.153 1.335 1.335 0 0 0-1.216-.276l-1.235.191-12.348 2.039v12.335a6.792 6.792 0 0 1-.353 1.586c-.141.54-.3 1.097-.459 1.742a.276.276 0 0 0 0 .244l6.616-12.77a1.894 1.894 0 0 1 2.205-1.081c.886.185 1.51.97 1.482 1.864v16.9a1.914 1.914 0 0 1-1.914 1.718c-.991 0-1.82-.744-1.914-1.718V30.28h-.142l-5.15 9.757c-.2.383-.412.749-.636 1.097a1.935 1.935 0 0 1-2.134.784 1.745 1.745 0 0 1-1.324-1.742V25.175h-.229l-9.561 17.928a1.974 1.974 0 0 1-1.66 1.177 1.984 1.984 0 0 1-1.827-.902 1.93 1.93 0 0 1-.041-2.017 393.904 393.904 0 0 0 3.157-5.82l8.68-16.499-11.15 1.742A2.496 2.496 0 0 0 29 22.422v22.79a1.764 1.764 0 0 0 1.764 1.15h26.973a1.972 1.972 0 0 0 2.117-1.604l.106-.4h1.94a1.434 1.434 0 0 0 1.324-.68c.227-.358.388-.753.476-1.167.141-.767.194-1.568.282-2.352.306-2.811.606-5.628.9-8.45a.329.329 0 0 1 .092-.246.337.337 0 0 1 .243-.103c.459 0 .882-.157 1.323-.244a7.995 7.995 0 0 0 3.281-1.307 3.47 3.47 0 0 0 1.517-3.136 1.884 1.884 0 0 0-1.499-2.056zm-5.945-4.53c-.176 1.168-.247 2.37-.37 3.485-.212 2.056-.406 4.112-.618 6.185l-.635 6.15a788.794 788.794 0 0 1-.582 5.227c-.03.35-.226.665-.53.848-.303.182-.677.21-1.005.076L62.518 18.1c.339.242.663.504.97.784a1.3 1.3 0 0 1 .406 1.185v.017zM68.25 28.8a1.525 1.525 0 0 1-1.089-.488 1.487 1.487 0 0 1-.393-1.115c0-.818.672-1.48 1.5-1.48a1.516 1.516 0 0 1 1.517 1.515 1.517 1.517 0 0 1-1.535 1.498v.07zm.988-1.603a.964.964 0 0 1-.952.94.947.947 0 0 1-.953-.94c0-.52.426-.94.953-.94.526 0 .952.42.952.94z"/><path fill="#00AAA8" d="M31.4 44.427a1.964 1.964 0 0 1-1.3-1.258c-.2-.603-.09-1.264.294-1.773.952-2.004 1.993-3.938 3.016-5.854l10.144-19.253a1.984 1.984 0 0 1 2.54-1.063 2.003 2.003 0 0 0-2.628.994L33.04 35.664c-1.06 1.986-2.117 3.936-3.14 5.906a1.95 1.95 0 0 0 .185 2.352 2.01 2.01 0 0 0 2.337.488 1.982 1.982 0 0 1-1.093 0l.07.017zM53.185 21.22a1.876 1.876 0 0 1 1.905-.993 1.895 1.895 0 0 0-2.029.958c-1.429 2.736-3.722 7.353-5.15 10.245l5.274-10.21zm1.764 19.653a1.911 1.911 0 0 1-1.923-1.9v-8.71h-.212.106v8.833c0 1.058.869 1.916 1.94 1.916 1.072 0 1.941-.858 1.941-1.916v-.174a1.886 1.886 0 0 1-.55 1.383 1.935 1.935 0 0 1-1.39.568h.088zm1.8-18.904a1.72 1.72 0 0 1 0 .192v-.192zM44.876 41.901a1.745 1.745 0 0 1-1.323-1.742V25.175h-.212v15.158c.02.822.588 1.533 1.394 1.742a1.957 1.957 0 0 0 1.905-.523 1.942 1.942 0 0 1-1.764.349z"/></g></g></svg>