<svg xmlns="http://www.w3.org/2000/svg" viewBox="0 0 100 60"><g fill="none" fill-rule="evenodd"><path fill="#FFF" d="M0 0h100v60H0z"/><path fill="#F90" fill-rule="nonzero" d="M68.106 42.263c-4.773 4.12-11.691 6.32-17.648 6.32-8.353 0-15.874-3.62-21.56-9.641-.45-.473-.051-1.12.486-.752 6.14 4.187 13.73 6.704 21.572 6.704 5.287 0 11.109-1.28 16.453-3.942.81-.404 1.49.618.697 1.308v.003zm1.986-2.664c-.608-.913-4.033-.432-5.569-.217-.47.066-.543-.412-.12-.752 2.727-2.255 7.205-1.603 7.728-.849.526.757-.132 6.013-2.7 8.527-.394.384-.765.178-.59-.334.576-1.682 1.867-5.456 1.254-6.375h-.003z"/><path fill="#221F1F" d="M54.657 27.258c0 1.96.048 3.597-.909 5.34-.773 1.414-1.996 2.282-3.366 2.282-1.868 0-2.953-1.47-2.953-3.647 0-4.287 3.712-5.066 7.228-5.066v1.09m4.905 12.27a.987.987 0 0 1-1.148.122c-1.614-1.386-1.9-2.032-2.792-3.355-2.664 2.818-4.551 3.661-8.016 3.661-4.087 0-7.276-2.611-7.276-7.845 0-4.084 2.143-6.868 5.186-8.226 2.644-1.206 6.328-1.42 9.14-1.748v-.655c0-1.197.094-2.617-.584-3.647-.596-.927-1.733-1.308-2.728-1.308-1.857 0-3.516.983-3.915 3.02-.085.454-.405.9-.844.92l-4.717-.521c-.393-.092-.832-.426-.722-1.058 1.085-5.916 6.252-7.7 10.876-7.7 2.362 0 5.456.65 7.323 2.505 2.368 2.283 2.143 5.34 2.143 8.658v7.845c0 2.358.943 3.396 1.829 4.666.317.456.388 1.002-.009 1.341-.993.858-2.756 2.45-3.73 3.341l-.013-.014"/></g></svg>