<svg xmlns="http://www.w3.org/2000/svg" viewBox="0 0 100 60"><g fill="none" fill-rule="evenodd"><path fill="#FFF" d="M0 0h100v60H0z"/><g fill-rule="nonzero" transform="translate(30 10)"><circle cx="20" cy="20" r="20" fill="#E2704D"/><path fill="#FFF" d="m14.667 19.333.222-3.11s1.555.221 2-.223c.889-.667.889-2 1.111-2.667.667-3.11 4.444-4.889 8.444-3.777L26 12.666s-.222-.222-.889-.222c-2.444-.222-3.555.445-3.778 3.778h3.334l-.445 2.222-5.333 5.334H22c-2.667 2.889-6.222 6.444-8.444 8.444l2.888-5.778H14c2.222-4.222 2.222-4.444 3.778-7.333"/></g></g></svg>