<svg xmlns="http://www.w3.org/2000/svg" viewBox="0 0 100 60"><g fill="none" fill-rule="evenodd"><path fill="#FFF" d="M0 0h100v60H0z"/><path fill="#EB2227" fill-rule="nonzero" d="M56.6 12c1.2.2 2.4.4 3.4.6 4.4.8 7.8 4 9 8.2.6 3.2.2 6.6-1.4 9.4-1.8 3.6-4.2 6.6-7.4 9-4.2 3.6-9.2 6.4-14.6 8.2-1.2.4-2.6.6-3.8.6-2.2.2-4.2-1.4-4.4-3.6v-1c.4-4.2 3.4-7.6 7.6-8.8 1 0 2 0 2.8.4 1 .4 1.6 1.6 1.2 2.8-.2.4-.4.6-.6.8-.8.8-1.6 1.6-2.4 2.2-.8.6-1.4 1.2-2 2-.4.4-.6.8-.8 1.2-.4.8 0 1.2.8 1.2.4 0 .8 0 1.2-.2 7-2.6 12.6-7.4 16.2-13.8.6-1 .8-2 .8-3.2.2-3.4-2-5.4-5.2-4.4-2.4.8-5 1.8-7.2 3-2.4 1.2-4.8 2.8-7.2 4-1.8 1-3.8 1.6-6 1.8-1 .2-2 0-2.8-.2-2-.2-3.6-2.2-3.2-4.6 0-.2 0-.4.2-.6 1-2.8 2.8-5.4 5.2-7 4.6-3.6 10-6.2 15.8-7.4 1-.2 2.2-.4 3.2-.6h1.6z"/></g></svg>